<svg width="1200" height="1200" viewBox="0 0 1200 1200" fill="none" xmlns="http://www.w3.org/2000/svg">
<g clip-path="url(#clip0_1000_53)">
<rect width="1200" height="1200" fill="white"/>
<rect width="1200" height="1200" fill="url(#paint0_linear_1000_53)"/>
<path d="M801.111 380.015H776.853V408.291H801.111V380.015Z" fill="black"/>
<path d="M881.604 367.776C870.607 338.91 847.593 315.774 816.943 304.678C773.297 288.884 725.905 301.714 696.202 337.369L580.937 475.709L351.771 750.755L282.897 834.054L232.914 894.504H258.68C350.722 894.504 439.853 873.42 520.13 834.07L637.466 834.078C637.474 834.078 637.476 834.078 637.484 834.078C639.291 834.078 641.09 834.05 642.891 834.014V902.987H721.699V878.729H667.149V832.344C723.039 825.81 774.773 800.877 815.172 760.482C862.639 713.018 888.78 649.909 888.78 582.779V461.575L966.086 416.757L881.604 367.776ZM514.404 809.812C496.374 818.869 477.875 826.977 458.966 834.066C403.772 854.754 345.149 866.907 284.941 869.65L314.372 834.058L334.427 809.802H334.15L370.282 766.437L590.606 499.967H592.3H832.992L697.704 663.59C646.576 725.425 584.044 774.824 514.404 809.812ZM864.523 582.779C864.523 643.426 840.904 700.446 798.02 743.328C755.136 786.207 698.13 809.822 637.486 809.82C637.482 809.82 637.472 809.82 637.468 809.82L564.652 809.816C621.524 775.595 672.92 731.633 716.398 679.049L864.521 499.901V582.779H864.523ZM864.523 475.709H612.51L714.836 352.898C742.862 319.261 781.696 317.716 808.685 327.49C835.68 337.26 864.523 363.303 864.523 407.084V475.709ZM888.922 400.059L917.72 416.757L888.922 433.452V400.059Z" fill="black"/>
</g>
<defs>
<linearGradient id="paint0_linear_1000_53" x1="600" y1="1301" x2="600" y2="-377.5" gradientUnits="userSpaceOnUse">
<stop stop-color="white"/>
<stop offset="1" stop-color="white"/>
</linearGradient>
<clipPath id="clip0_1000_53">
<rect width="1200" height="1200" fill="white"/>
</clipPath>
</defs>
</svg>
