<svg width="3155" height="1096" viewBox="0 0 3155 1096" fill="none" xmlns="http://www.w3.org/2000/svg">
<path d="M761.493 314.52H735.806V344.463H761.493V314.52Z" fill="black"/>
<path d="M846.731 301.561C835.086 270.993 810.715 246.493 778.259 234.743C732.04 218.019 681.856 231.605 650.401 269.361L528.343 415.855L285.671 707.111L212.738 795.319L159.809 859.333H187.093C284.56 859.333 378.944 837.006 463.953 795.337L588.203 795.345C588.212 795.345 588.214 795.345 588.223 795.345C590.136 795.345 592.041 795.315 593.949 795.277V868.315H677.401V842.627H619.636V793.508C678.82 786.59 733.603 760.187 776.384 717.411C826.648 667.15 854.33 600.321 854.33 529.235V400.888L936.192 353.428L846.731 301.561ZM457.889 769.649C438.796 779.239 419.207 787.825 399.184 795.332C340.736 817.239 278.658 830.109 214.902 833.014L246.067 795.324L267.304 769.638H267.011L305.273 723.718L538.582 441.543H540.375H795.253L651.992 614.809C597.851 680.289 531.633 732.599 457.889 769.649ZM828.643 529.235C828.643 593.456 803.632 653.837 758.22 699.246C712.809 744.653 652.443 769.66 588.225 769.658C588.22 769.658 588.21 769.658 588.205 769.658L511.098 769.653C571.322 733.415 625.748 686.863 671.788 631.178L828.64 441.472V529.235H828.643ZM828.643 415.855H561.777L670.134 285.806C699.811 250.186 740.935 248.55 769.514 258.9C798.1 269.246 828.643 296.824 828.643 343.185V415.855ZM854.48 335.747L884.975 353.428L854.48 371.107V335.747Z" fill="black"/>
<path d="M1277.89 404.954L1167.23 726H1100.32L1239.73 355.602H1282.47L1277.89 404.954ZM1370.49 726L1259.58 404.954L1254.74 355.602H1297.73L1437.65 726H1370.49ZM1365.15 588.627V639.251H1163.67V588.627H1365.15ZM1529.74 506.712V726H1468.43V450.745H1526.18L1529.74 506.712ZM1519.82 578.197L1498.96 577.942C1498.96 558.948 1501.34 541.394 1506.08 525.283C1510.83 509.171 1517.79 495.179 1526.94 483.308C1536.1 471.266 1547.47 462.023 1561.03 455.579C1574.77 448.964 1590.63 445.657 1608.6 445.657C1621.16 445.657 1632.6 447.523 1642.95 451.254C1653.46 454.815 1662.54 460.497 1670.17 468.298C1677.97 476.1 1683.91 486.106 1687.98 498.317C1692.22 510.528 1694.34 525.283 1694.34 542.582V726H1633.03V547.924C1633.03 534.526 1630.99 524.011 1626.92 516.379C1623.02 508.747 1617.34 503.32 1609.88 500.098C1602.58 496.706 1593.85 495.01 1583.67 495.01C1572.14 495.01 1562.31 497.215 1554.16 501.624C1546.19 506.034 1539.66 512.054 1534.58 519.686C1529.49 527.318 1525.76 536.137 1523.38 546.143C1521.01 556.149 1519.82 566.834 1519.82 578.197ZM1690.52 561.916L1661.77 568.275C1661.77 551.655 1664.06 535.967 1668.64 521.212C1673.39 506.288 1680.26 493.229 1689.25 482.036C1698.41 470.673 1709.68 461.769 1723.08 455.324C1736.48 448.88 1751.83 445.657 1769.13 445.657C1783.2 445.657 1795.75 447.608 1806.78 451.508C1817.97 455.239 1827.47 461.175 1835.27 469.316C1843.07 477.457 1849.01 488.056 1853.08 501.115C1857.15 514.005 1859.18 529.607 1859.18 547.924V726H1797.62V547.669C1797.62 533.763 1795.58 522.993 1791.51 515.361C1787.61 507.729 1782.02 502.472 1774.72 499.589C1767.43 496.536 1758.7 495.01 1748.52 495.01C1739.02 495.01 1730.63 496.791 1723.34 500.352C1716.21 503.744 1710.19 508.577 1705.27 514.853C1700.36 520.958 1696.63 527.996 1694.08 535.967C1691.71 543.938 1690.52 552.588 1690.52 561.916ZM1987.91 450.745V726H1926.34V450.745H1987.91ZM1922.27 378.497C1922.27 369.169 1925.33 361.453 1931.43 355.347C1937.71 349.072 1946.36 345.935 1957.38 345.935C1968.23 345.935 1976.8 349.072 1983.07 355.347C1989.35 361.453 1992.49 369.169 1992.49 378.497C1992.49 387.655 1989.35 395.287 1983.07 401.393C1976.8 407.498 1968.23 410.551 1957.38 410.551C1946.36 410.551 1937.71 407.498 1931.43 401.393C1925.33 395.287 1922.27 387.655 1922.27 378.497ZM2209.48 651.462C2209.48 645.357 2207.96 639.845 2204.91 634.927C2201.85 629.839 2196 625.26 2187.35 621.189C2178.87 617.119 2166.32 613.388 2149.7 609.996C2135.12 606.774 2121.72 602.958 2109.51 598.548C2097.47 593.969 2087.12 588.457 2078.47 582.013C2069.82 575.568 2063.12 567.936 2058.37 559.117C2053.63 550.298 2051.25 540.122 2051.25 528.59C2051.25 517.396 2053.71 506.797 2058.63 496.791C2063.55 486.784 2070.59 477.965 2079.74 470.333C2088.9 462.702 2100.01 456.681 2113.07 452.271C2126.3 447.862 2141.05 445.657 2157.33 445.657C2180.4 445.657 2200.16 449.558 2216.61 457.359C2233.23 464.991 2245.95 475.421 2254.77 488.65C2263.59 501.709 2268 516.464 2268 532.915H2206.69C2206.69 525.622 2204.82 518.838 2201.09 512.563C2197.53 506.118 2192.1 500.946 2184.81 497.045C2177.52 492.975 2168.36 490.939 2157.33 490.939C2146.82 490.939 2138.08 492.635 2131.13 496.027C2124.35 499.25 2119.26 503.49 2115.87 508.747C2112.65 514.005 2111.03 519.771 2111.03 526.046C2111.03 530.625 2111.88 534.78 2113.58 538.511C2115.44 542.073 2118.5 545.38 2122.74 548.433C2126.98 551.316 2132.74 554.029 2140.04 556.573C2147.5 559.117 2156.83 561.576 2168.02 563.951C2189.05 568.36 2207.11 574.042 2222.2 580.995C2237.47 587.779 2249.17 596.598 2257.31 607.452C2265.45 618.137 2269.52 631.704 2269.52 648.155C2269.52 660.366 2266.89 671.56 2261.64 681.735C2256.55 691.742 2249.09 700.476 2239.25 707.938C2229.41 715.231 2217.63 720.912 2203.89 724.982C2190.32 729.053 2175.06 731.088 2158.1 731.088C2133.17 731.088 2112.05 726.678 2094.75 717.859C2077.45 708.871 2064.31 697.423 2055.32 683.516C2046.5 669.44 2042.09 654.854 2042.09 639.76H2101.37C2102.05 651.123 2105.18 660.197 2110.78 666.98C2116.55 673.595 2123.67 678.428 2132.15 681.481C2140.8 684.364 2149.7 685.806 2158.86 685.806C2169.88 685.806 2179.13 684.364 2186.59 681.481C2194.05 678.428 2199.73 674.358 2203.63 669.27C2207.53 664.013 2209.48 658.077 2209.48 651.462ZM2444.55 731.088C2424.19 731.088 2405.79 727.781 2389.34 721.167C2373.06 714.383 2359.15 704.97 2347.62 692.929C2336.26 680.887 2327.52 666.726 2321.42 650.445C2315.31 634.164 2312.26 616.61 2312.26 597.785V587.609C2312.26 566.071 2315.4 546.567 2321.67 529.099C2327.95 511.63 2336.68 496.706 2347.88 484.325C2359.07 471.775 2372.3 462.193 2387.56 455.579C2402.82 448.964 2419.36 445.657 2437.17 445.657C2456.84 445.657 2474.06 448.964 2488.81 455.579C2503.56 462.193 2515.78 471.521 2525.44 483.562C2535.28 495.434 2542.57 509.595 2547.32 526.046C2552.24 542.497 2554.7 560.644 2554.7 580.486V606.689H2342.02V562.679H2494.15V557.845C2493.81 546.821 2491.61 536.476 2487.54 526.809C2483.64 517.142 2477.62 509.341 2469.48 503.405C2461.34 497.469 2450.48 494.501 2436.91 494.501C2426.74 494.501 2417.66 496.706 2409.69 501.115C2401.89 505.355 2395.36 511.545 2390.1 519.686C2384.85 527.827 2380.78 537.663 2377.89 549.196C2375.18 560.559 2373.82 573.363 2373.82 587.609V597.785C2373.82 609.826 2375.43 621.02 2378.66 631.365C2382.05 641.541 2386.97 650.445 2393.41 658.077C2399.86 665.708 2407.66 671.729 2416.82 676.139C2425.97 680.379 2436.4 682.499 2448.11 682.499C2462.86 682.499 2476.01 679.531 2487.54 673.595C2499.07 667.659 2509.08 659.264 2517.56 648.41L2549.86 679.7C2543.93 688.35 2536.21 696.66 2526.71 704.631C2517.22 712.432 2505.6 718.792 2491.86 723.71C2478.3 728.629 2462.52 731.088 2444.55 731.088ZM2663.32 509.51V726H2602.02V450.745H2659.76L2663.32 509.51ZM2652.39 578.197L2632.54 577.942C2632.71 558.439 2635.43 540.546 2640.68 524.265C2646.11 507.984 2653.57 493.992 2663.07 482.29C2672.74 470.588 2684.27 461.599 2697.67 455.324C2711.07 448.88 2725.99 445.657 2742.44 445.657C2755.67 445.657 2767.63 447.523 2778.31 451.254C2789.17 454.815 2798.41 460.667 2806.04 468.807C2813.84 476.948 2819.78 487.548 2823.85 500.606C2827.92 513.496 2829.95 529.353 2829.95 548.178V726H2768.39V547.924C2768.39 534.695 2766.44 524.265 2762.54 516.633C2758.81 508.832 2753.3 503.32 2746 500.098C2738.88 496.706 2729.98 495.01 2719.29 495.01C2708.78 495.01 2699.36 497.215 2691.05 501.624C2682.74 506.034 2675.71 512.054 2669.94 519.686C2664.34 527.318 2660.02 536.137 2656.96 546.143C2653.91 556.149 2652.39 566.834 2652.39 578.197ZM3060.43 669.016V335.25H3122V726H3066.29L3060.43 669.016ZM2881.34 591.425V586.083C2881.34 565.223 2883.8 546.228 2888.72 529.099C2893.64 511.8 2900.76 496.96 2910.09 484.58C2919.42 472.029 2930.78 462.447 2944.18 455.833C2957.57 449.049 2972.67 445.657 2989.46 445.657C3006.08 445.657 3020.66 448.88 3033.21 455.324C3045.76 461.769 3056.45 471.012 3065.27 483.053C3074.09 494.925 3081.13 509.171 3086.38 525.792C3091.64 542.242 3095.37 560.559 3097.58 580.741V597.785C3095.37 617.458 3091.64 635.436 3086.38 651.717C3081.13 667.998 3074.09 682.075 3065.27 693.946C3056.45 705.818 3045.68 714.976 3032.96 721.421C3020.41 727.866 3005.74 731.088 2988.95 731.088C2972.33 731.088 2957.32 727.611 2943.92 720.658C2930.69 713.704 2919.42 703.952 2910.09 691.402C2900.76 678.852 2893.64 664.097 2888.72 647.138C2883.8 630.008 2881.34 611.438 2881.34 591.425ZM2942.65 586.083V591.425C2942.65 603.975 2943.75 615.678 2945.96 626.532C2948.33 637.386 2951.98 646.968 2956.9 655.278C2961.81 663.419 2968.17 669.864 2975.98 674.612C2983.95 679.191 2993.44 681.481 3004.47 681.481C3018.37 681.481 3029.82 678.428 3038.81 672.323C3047.8 666.217 3054.84 657.992 3059.93 647.646C3065.18 637.132 3068.74 625.429 3070.61 612.54V566.495C3069.59 556.488 3067.47 547.161 3064.25 538.511C3061.2 529.862 3057.04 522.315 3051.79 515.87C3046.53 509.256 3040 504.168 3032.2 500.606C3024.56 496.875 3015.49 495.01 3004.98 495.01C2993.78 495.01 2984.29 497.384 2976.48 502.133C2968.68 506.882 2962.24 513.411 2957.15 521.721C2952.23 530.031 2948.59 539.698 2946.21 550.722C2943.84 561.746 2942.65 573.533 2942.65 586.083Z" fill="#040000"/>
</svg>
